<svg width="160" height="67" fill="none" xmlns="http://www.w3.org/2000/svg"><path fill-rule="evenodd" clip-rule="evenodd" d="M48 25c4 4 12 0 9-5-2-4-4-3-6-2-4 2-4 5-3 7zm-6-3c2 5-5 8-8 5-2-2-1-5 2-7 2-1 5-1 6 2zm116 28l-4 1c-2 17-26 20-27 6 0-6 12-8 24-9 0-5-4-4-8-2-5 1-11 3-14-2-5-9 15-18 17-16 6 5 3 6-1 8-10 3-6 4-5 4 8-3 14-1 14 8h4c2 0 3 2 0 2zm-8 1c-9 1-17 3-16 5 2 6 14 7 16-5zm-32-17v12s2 0 3-2l1-4c2-3 3-7 5-8 3-1-8-5-9 2zM29 63c-8 5-14 4-12-11 1-11-1-12-3-10-3 3-5 10-5 17l1 5c0 1-5 3-8 1-1-1-2-9-2-20 0-9 1-15 2-15 8-2 10 1 8 8l-2 8c2-5 4-9 7-10 8-5 14-3 13 6-2 17-3 19-1 18 2-2 4 1 2 3zm13 2c5 1 11-1 13-4s0-4-2-2c-4 5-9 3-11-2l1-1c9-3 15-14 11-19-5-8-21-1-23 10-2 10 3 17 11 18zm-1-12c6-4 8-13 7-16-2-2-6 2-7 12v4zm36-2a12 12 0 007-8l1-2c1-7-3-11-9-8-3 2-7 8-10 15l3-11c2-6-2-9-8-7-1 0-3 8-3 17 0 11 1 17 2 17 3 3 8 1 8 0l-1-2v-1c-1-7 3-16 6-19 1-1 2 0 3 2-3 1-4 3-4 4 0 3 3 4 5 3z" fill="#000"/><path fill-rule="evenodd" clip-rule="evenodd" d="M113 27a87 87 0 000 31c0 2 3 5 6 2 3-4 6-2 2 2-2 2-7 4-11 4-3-1-5-3-6-6l-2 2c-2 3-4 4-8 3-6 0-10-7-8-18s11-14 16-12l1-4v-1l-5 1c-24 4-16-15-10-20 7-6 7-2 5-1-3 3-5 16 5 16h5c4-19 14-27 22-24 9 3 8 17-12 25zm-11 25V40v-1-1c-3-1-6 4-7 11-1 9 2 13 5 11l2-8zm24-44c-1-2-8 1-12 15 10-5 14-13 12-15z" fill="#000"/></svg>